<svg width="817" height="371" viewBox="0 0 817 371" fill="none" xmlns="http://www.w3.org/2000/svg">
<g opacity="0.3" clip-path="url(#clip0_1122_17821)">
<path d="M575.2 478.535C573.277 477.437 571.635 475.823 570.5 473.74C567.224 467.753 569.436 460.251 575.417 456.985C624.332 430.248 664.879 390.394 692.663 341.726C765.571 214.01 736.487 53.2631 623.512 -40.4875C618.266 -44.8369 617.539 -52.6358 621.898 -57.8763C626.247 -63.1224 634.036 -63.8552 639.287 -59.4901C697.708 -11.0127 737.597 57.0178 751.606 132.067C765.779 207.994 752.461 286.805 714.117 353.973C684.064 406.618 640.206 449.735 587.265 478.663C583.356 480.787 578.805 480.593 575.2 478.535Z" fill="url(#paint0_linear_1122_17821)"/>
<path d="M531.486 448.215C529.262 446.945 527.403 444.968 526.298 442.438C523.568 436.192 526.423 428.911 532.675 426.171C583.388 404.033 624.743 366.857 652.263 318.65C703.398 229.076 695.937 118.269 633.249 36.3466C629.105 30.9267 630.132 23.1728 635.552 19.0291C640.972 14.8855 648.72 15.9222 652.869 21.3321C721.609 111.172 729.787 232.68 673.718 330.898C643.544 383.753 598.194 424.53 542.564 448.815C538.848 450.439 534.761 450.085 531.486 448.215Z" fill="url(#paint1_linear_1122_17821)"/>
<path d="M493.23 416.271C490.646 414.796 488.588 412.399 487.609 409.344C485.514 402.849 489.074 395.89 495.559 393.789C545.972 377.481 588.213 343.15 614.504 297.096C663.992 210.406 645.825 99.4639 571.301 33.2948C566.2 28.7622 565.741 20.9575 570.258 15.86C574.791 10.7583 582.59 10.3101 587.693 14.817C627.736 50.3587 654.747 99.1655 663.785 152.24C672.947 206.05 663.063 261.841 635.949 309.338C606.599 360.75 559.44 399.088 503.154 417.288C499.714 418.405 496.135 417.929 493.23 416.271Z" fill="url(#paint2_linear_1122_17821)"/>
<path d="M581.735 292.613C575.816 289.234 573.747 281.692 577.132 275.762C623.389 194.732 595.103 91.1867 514.073 44.929C503.095 38.6622 491.456 33.6245 479.492 29.9688C472.98 27.9774 469.3 21.0695 471.297 14.5469C473.294 8.02427 480.197 4.35493 486.719 6.35206C500.435 10.5435 513.76 16.3043 526.331 23.4802C619.18 76.485 651.607 195.156 598.602 288.005C595.201 293.939 587.665 295.998 581.735 292.613Z" fill="url(#paint3_linear_1122_17821)"/>
<path d="M543.769 270.94C537.85 267.561 535.781 260.019 539.166 254.089C573.467 194.003 552.488 117.205 492.401 82.9035C486.482 79.5242 484.413 71.9819 487.798 66.0524C491.177 60.1329 498.72 58.0641 504.649 61.449C576.565 102.503 601.67 194.406 560.616 266.321C557.235 272.266 549.699 274.325 543.769 270.94Z" fill="url(#paint4_linear_1122_17821)"/>
<path d="M461.8 287.508C459.597 286.25 457.752 284.294 456.645 281.79C453.885 275.553 456.694 268.259 462.931 265.498C478.7 258.51 491.58 246.859 500.162 231.825C522.182 193.253 508.716 143.958 470.144 121.939C464.224 118.559 462.155 111.017 465.54 105.088C468.925 99.1581 476.462 97.0992 482.391 100.484C532.792 129.257 550.389 193.672 521.617 244.072C510.398 263.724 493.572 278.939 472.947 288.082C469.204 289.73 465.096 289.39 461.8 287.508Z" fill="url(#paint5_linear_1122_17821)"/>
<path d="M268.109 475.806C162.62 415.585 99.5003 302.686 103.369 181.176C103.585 174.353 109.293 169.006 116.1 169.227C122.922 169.443 128.269 175.151 128.049 181.958C124.474 294.3 182.83 398.676 280.357 454.351C342.276 489.699 414.922 502.047 484.932 489.119C491.644 487.877 498.079 492.308 499.32 499.019C500.562 505.731 496.132 512.165 489.42 513.407C413.68 527.394 335.087 514.041 268.109 475.806Z" fill="url(#paint6_linear_1122_17821)"/>
<path d="M291.171 435.41C188.646 376.881 133.503 259.478 153.95 143.262C155.132 136.54 161.542 132.058 168.254 133.234C174.971 134.426 179.459 140.826 178.283 147.538C159.635 253.506 209.924 360.569 303.424 413.945C361.598 447.155 429.347 456.216 494.191 439.448C500.799 437.736 507.533 441.713 509.236 448.316C510.938 454.918 506.971 461.658 500.368 463.36C429.256 481.755 354.963 471.827 291.171 435.41Z" fill="url(#paint7_linear_1122_17821)"/>
<path d="M312.731 397.635C214.783 341.72 169.652 223.644 205.407 116.858C207.572 110.391 214.573 106.897 221.034 109.072C227.501 111.236 230.994 118.237 228.82 124.699C196.789 220.331 237.222 326.096 324.963 376.185C361.04 396.78 401.923 406.308 443.194 403.732C450 403.302 455.872 408.487 456.293 415.287C456.723 422.093 451.544 427.955 444.738 428.386C398.652 431.253 352.995 420.621 312.731 397.635Z" fill="url(#paint8_linear_1122_17821)"/>
<path d="M334.06 360.278C274.694 326.388 237.229 262.835 236.275 194.415C236.181 187.602 241.63 181.987 248.454 181.899C255.267 181.804 260.881 187.254 260.97 194.077C261.805 253.797 294.499 309.26 346.302 338.833C390.453 364.038 443.043 368.084 490.596 349.945C496.966 347.512 504.104 350.71 506.537 357.08C508.97 363.449 505.772 370.587 499.402 373.02C444.921 393.804 384.651 389.159 334.06 360.278Z" fill="url(#paint9_linear_1122_17821)"/>
<path d="M355.735 322.305C302.369 291.84 273.153 232.797 281.304 171.899C282.214 165.141 288.432 160.39 295.18 161.294C301.938 162.204 306.685 168.406 305.785 175.17C298.965 226.058 323.381 275.388 367.973 300.844C402.438 320.52 443.166 322.827 479.698 307.175C485.972 304.488 493.225 307.394 495.917 313.658C498.603 319.933 495.698 327.185 489.434 329.877C445.722 348.616 396.981 345.851 355.735 322.305Z" fill="url(#paint10_linear_1122_17821)"/>
<path d="M378.01 283.293C349.073 266.774 329.492 237.123 325.632 203.99C324.838 197.215 329.696 191.077 336.465 190.293C343.25 189.505 349.377 194.358 350.161 201.127C353.117 226.493 368.102 249.191 390.257 261.839C396.177 265.218 398.246 272.76 394.861 278.69C391.476 284.619 383.929 286.672 378.01 283.293Z" fill="url(#paint11_linear_1122_17821)"/>
<path d="M121.731 115.393C116.893 112.631 114.387 106.831 116.003 101.233C123.175 76.456 133.355 52.4132 146.266 29.7968C235.636 -126.755 435.709 -181.411 592.271 -92.0342C598.19 -88.655 600.259 -81.1127 596.874 -75.1832C593.489 -69.2536 585.952 -67.1948 580.023 -70.5798C435.301 -153.198 250.338 -102.678 167.714 42.0546C155.775 62.9681 146.352 85.1982 139.727 108.109C137.831 114.663 130.98 118.429 124.426 116.533C123.465 116.263 122.562 115.867 121.731 115.393Z" fill="url(#paint12_linear_1122_17821)"/>
<path d="M172.365 110.205C167.217 107.266 164.801 100.96 166.91 95.2181C172.268 80.6674 178.911 66.4251 186.659 52.8533C263.319 -81.4323 434.929 -128.313 569.215 -51.653C573.001 -49.4917 576.785 -47.2116 580.454 -44.8914C586.219 -41.2417 587.932 -33.6105 584.272 -27.8511C580.623 -22.086 572.946 -20.3862 567.232 -24.033C563.878 -26.1603 560.428 -28.2359 556.963 -30.2143C434.506 -100.121 278.016 -57.3713 208.109 65.0853C201.042 77.4652 194.973 90.4684 190.094 103.739C187.742 110.138 180.639 113.414 174.229 111.057C173.57 110.839 172.946 110.536 172.365 110.205Z" fill="url(#paint13_linear_1122_17821)"/>
<path d="M229.039 91.2709C223.119 87.8916 221.051 80.3493 224.436 74.4198C254.163 22.3461 302.015 -16.2066 359.191 -34.1509C416.057 -51.9935 476.973 -47.9221 530.725 -22.6688C536.884 -19.8031 539.545 -12.4142 536.648 -6.24596C533.751 -0.0777407 526.394 2.5747 520.225 -0.322379C420.88 -46.9958 300.382 -8.7858 245.896 86.6575C242.505 92.597 234.958 94.6501 229.039 91.2709Z" fill="url(#paint14_linear_1122_17821)"/>
<path d="M261.738 121.281C256.079 118.051 253.874 110.909 256.838 105.018C258.399 101.912 260.075 98.7912 261.807 95.7564C295.177 37.3025 355.298 0.80022 422.626 -1.89318C429.449 -2.16786 435.185 3.1384 435.465 9.95188C435.746 16.7654 430.434 22.5112 423.62 22.7916C364.855 25.1409 312.383 56.9921 283.262 108.004C281.746 110.658 280.284 113.383 278.915 116.107C275.856 122.209 268.427 124.662 262.34 121.599C262.124 121.489 261.928 121.39 261.738 121.281Z" fill="url(#paint15_linear_1122_17821)"/>
<path d="M303.428 135.942C297.569 132.597 295.479 125.162 298.749 119.247C299.082 118.64 299.425 118.039 299.774 117.428C329.581 65.214 387.444 35.8554 447.188 42.6309C453.959 43.402 458.834 49.5183 458.073 56.295C457.302 63.066 451.186 67.941 444.409 67.1799C394.49 61.5246 346.146 86.0513 321.239 129.681C320.947 130.192 320.661 130.693 320.379 131.21C317.08 137.175 309.564 139.338 303.599 136.039C303.528 135.999 303.478 135.97 303.428 135.942Z" fill="url(#paint16_linear_1122_17821)"/>
<path d="M343.384 156.547C337.464 153.168 335.395 145.625 338.78 139.696C354.133 112.802 380.408 94.1102 410.874 88.4082C417.582 87.1508 424.032 91.577 425.28 98.2785C426.537 104.986 422.111 111.436 415.409 112.684C392.084 117.044 371.975 131.355 360.225 151.938C356.85 157.873 349.313 159.932 343.384 156.547Z" fill="url(#paint17_linear_1122_17821)"/>
</g>
<defs>
<linearGradient id="paint0_linear_1122_17821" x1="665.872" y1="460.913" x2="655.563" y2="-25.119" gradientUnits="userSpaceOnUse">
<stop stop-color="#FBB92F" stop-opacity="0"/>
<stop offset="1" stop-color="#F9BB17"/>
</linearGradient>
<linearGradient id="paint1_linear_1122_17821" x1="600.902" y1="420.607" x2="661.218" y2="89.3649" gradientUnits="userSpaceOnUse">
<stop stop-color="#FBCE68" stop-opacity="0"/>
<stop offset="1" stop-color="#FBD263"/>
</linearGradient>
<linearGradient id="paint2_linear_1122_17821" x1="565.352" y1="391.466" x2="608.72" y2="75.9869" gradientUnits="userSpaceOnUse">
<stop stop-color="#FBB92F" stop-opacity="0"/>
<stop offset="1" stop-color="white"/>
</linearGradient>
<linearGradient id="paint3_linear_1122_17821" x1="606.307" y1="275.485" x2="536.169" y2="55.7878" gradientUnits="userSpaceOnUse">
<stop stop-color="#FBB92F" stop-opacity="0"/>
<stop offset="1" stop-color="#F9BB17"/>
</linearGradient>
<linearGradient id="paint4_linear_1122_17821" x1="561.054" y1="212.521" x2="503.809" y2="106.707" gradientUnits="userSpaceOnUse">
<stop stop-color="#FBCE68" stop-opacity="0"/>
<stop offset="1" stop-color="#FBD263"/>
</linearGradient>
<linearGradient id="paint5_linear_1122_17821" x1="495.208" y1="269.064" x2="496.677" y2="96.6044" gradientUnits="userSpaceOnUse">
<stop stop-color="#FBB92F" stop-opacity="0"/>
<stop offset="1" stop-color="white"/>
</linearGradient>
<linearGradient id="paint6_linear_1122_17821" x1="157.966" y1="243.492" x2="446.078" y2="570.135" gradientUnits="userSpaceOnUse">
<stop stop-color="#FBCE68" stop-opacity="0"/>
<stop offset="1" stop-color="#FBD263"/>
</linearGradient>
<linearGradient id="paint7_linear_1122_17821" x1="172.527" y1="210.248" x2="431.501" y2="482.1" gradientUnits="userSpaceOnUse">
<stop stop-color="#FBB92F" stop-opacity="0"/>
<stop offset="1" stop-color="white"/>
</linearGradient>
<linearGradient id="paint8_linear_1122_17821" x1="204.378" y1="176.538" x2="362.099" y2="391.531" gradientUnits="userSpaceOnUse">
<stop stop-color="#FBB92F" stop-opacity="0"/>
<stop offset="1" stop-color="#F9BB17"/>
</linearGradient>
<linearGradient id="paint9_linear_1122_17821" x1="260.06" y1="254.448" x2="473.581" y2="363.622" gradientUnits="userSpaceOnUse">
<stop stop-color="#FBCE68" stop-opacity="0"/>
<stop offset="1" stop-color="#FBD263"/>
</linearGradient>
<linearGradient id="paint10_linear_1122_17821" x1="304.627" y1="227.569" x2="490.239" y2="349.429" gradientUnits="userSpaceOnUse">
<stop stop-color="#FBB92F" stop-opacity="0"/>
<stop offset="1" stop-color="white"/>
</linearGradient>
<linearGradient id="paint11_linear_1122_17821" x1="345.203" y1="225.549" x2="425.723" y2="290.594" gradientUnits="userSpaceOnUse">
<stop stop-color="#FBB92F" stop-opacity="0"/>
<stop offset="1" stop-color="#F9BB17"/>
</linearGradient>
<linearGradient id="paint12_linear_1122_17821" x1="537.04" y1="-136.323" x2="114.119" y2="80.9275" gradientUnits="userSpaceOnUse">
<stop stop-color="#FBB92F" stop-opacity="0"/>
<stop offset="1" stop-color="white"/>
</linearGradient>
<linearGradient id="paint13_linear_1122_17821" x1="504.697" y1="-71.2808" x2="193.409" y2="78.5315" gradientUnits="userSpaceOnUse">
<stop stop-color="#FBB92F" stop-opacity="0"/>
<stop offset="1" stop-color="#F9BB17"/>
</linearGradient>
<linearGradient id="paint14_linear_1122_17821" x1="484.447" y1="-36.3381" x2="254.146" y2="69.0838" gradientUnits="userSpaceOnUse">
<stop stop-color="#FBCE68" stop-opacity="0"/>
<stop offset="1" stop-color="#FBD263"/>
</linearGradient>
<linearGradient id="paint15_linear_1122_17821" x1="397.072" y1="3.45589" x2="288.965" y2="107.885" gradientUnits="userSpaceOnUse">
<stop stop-color="#FBB92F" stop-opacity="0"/>
<stop offset="1" stop-color="white"/>
</linearGradient>
<linearGradient id="paint16_linear_1122_17821" x1="415.633" y1="54.5046" x2="327.718" y2="117.993" gradientUnits="userSpaceOnUse">
<stop stop-color="#FBB92F" stop-opacity="0"/>
<stop offset="1" stop-color="#F9BB17"/>
</linearGradient>
<linearGradient id="paint17_linear_1122_17821" x1="406.545" y1="95.0089" x2="354.076" y2="149.32" gradientUnits="userSpaceOnUse">
<stop stop-color="#FBCE68" stop-opacity="0"/>
<stop offset="1" stop-color="#FBD263"/>
</linearGradient>
<clipPath id="clip0_1122_17821">
<rect width="653.855" height="653.855" fill="white" transform="translate(324.164 -265) rotate(29.7208)"/>
</clipPath>
</defs>
</svg>
